<svg width="126" height="35" viewBox="0 0 126 35" fill="none" xmlns="http://www.w3.org/2000/svg">
<path d="M1.1582 11.2907L11.4399 1.14282C9.09908 2.02495 6.97329 3.38483 5.20153 5.13352C3.42978 6.88222 2.05197 8.98034 1.1582 11.2907Z" fill="#EC7133"/>
<path d="M17.7503 0C16.9118 0.00124832 16.0744 0.0600794 15.2442 0.176067L0.17947 15.0457C0.0604284 15.8646 0.000454142 16.6909 0 17.5181C0 17.6793 0.00756802 17.8383 0.0118926 17.9994L18.2379 0.0117378C18.0757 0.00746951 17.9135 0 17.7503 0Z" fill="#EC7133"/>
<path d="M23.0848 0.806722C22.339 0.575973 21.5783 0.394875 20.8079 0.264648L0.266113 20.539C0.398178 21.2994 0.581662 22.0501 0.815335 22.7863L23.0848 0.806722Z" fill="#EC7133"/>
<path d="M26.9724 2.54813C26.3759 2.19219 25.7586 1.87151 25.1236 1.58777L1.60547 24.7966C1.8925 25.4232 2.21743 26.0322 2.5785 26.6202L26.9724 2.54813Z" fill="#EC7133"/>
<path d="M30.15 4.98961C29.6708 4.52877 29.1654 4.09519 28.6364 3.69098L3.73975 28.2678C4.14994 28.7898 4.58958 29.2885 5.05658 29.7617L30.15 4.98961Z" fill="#EC7133"/>
<path d="M32.6886 8.06281C32.3231 7.50211 31.9261 6.96203 31.4994 6.44513L6.5249 31.0945C7.04855 31.5162 7.59614 31.9081 8.165 32.2683L32.6886 8.06281Z" fill="#EC7133"/>
<path d="M34.5327 11.82C34.2992 11.1458 34.0237 10.4865 33.7078 9.84589L9.97559 33.2692C10.6253 33.5803 11.2936 33.8522 11.9768 34.0834L34.5327 11.82Z" fill="#EC7133"/>
<path d="M35.4616 16.4799C35.4134 15.6495 35.305 14.8236 35.1372 14.0085L14.1943 34.6799C15.0195 34.8454 15.8555 34.9524 16.6961 35L35.4616 16.4799Z" fill="#EC7133"/>
<path d="M34.6573 22.8546C35.029 21.7076 35.2794 20.5257 35.4044 19.3279L19.584 34.9424C20.7977 34.8194 21.9952 34.5723 23.1572 34.205L34.6573 22.8546Z" fill="#EC7133"/>
<path d="M52.0916 24.5854C51.1492 24.5906 50.215 24.4112 49.3433 24.0577C48.4715 23.7041 47.6796 23.1833 47.0132 22.5255C46.3468 21.8677 45.8193 21.0859 45.4611 20.2255C45.103 19.365 44.9214 18.443 44.9269 17.5128C44.9269 13.5646 48.0892 10.3848 52.0916 10.3848C56.094 10.3848 59.2575 13.5625 59.2575 17.5128C59.2628 18.4431 59.081 19.3651 58.7228 20.2255C58.3646 21.086 57.8369 21.8678 57.1705 22.5255C56.504 23.1833 55.7119 23.7041 54.8401 24.0577C53.9683 24.4112 53.0341 24.5906 52.0916 24.5854ZM52.0916 12.504C49.2201 12.504 47.247 14.7651 47.247 17.4851C47.247 20.2328 49.2201 22.4662 52.0916 22.4662C54.9632 22.4662 56.9362 20.2328 56.9362 17.4851C56.9362 14.7651 54.9632 12.504 52.0916 12.504Z" fill="#EC7133"/>
<path d="M68.6257 24.213L65.5228 18.5724H64.593V24.213H62.2739V10.7561H64.8254C67.4364 10.7561 70.2506 11.4156 70.2506 14.6499C70.2506 16.5407 69.0322 17.6558 67.7845 18.1146L71.4107 24.213H68.6257ZM64.8254 12.8753H64.593V16.5685L64.8546 16.5407C66.6245 16.5407 67.8429 16.2825 67.8429 14.7363C67.8137 13.0759 66.6828 12.8753 64.8254 12.8753Z" fill="#EC7133"/>
<path d="M82.3455 24.213L81.0708 21.2348H75.5872L74.3396 24.213H71.7881L77.9376 10.7561H78.7496L84.8699 24.213H82.3455ZM78.3139 14.7939H78.2566L76.3419 19.4314H80.287L78.3139 14.7939Z" fill="#EC7133"/>
<path d="M97.9515 24.213L89.3651 15.0799V24.213H87.0449V10.7561H88.205L96.7623 19.9468V10.7561H99.0835V24.213H97.9515Z" fill="#EC7133"/>
<path d="M109.088 24.5853C105.026 24.5853 102.096 21.2924 102.096 17.5427C102.096 13.6777 105.026 10.3858 109.204 10.3858C111.727 10.3858 113.497 11.4443 115.266 13.5635L113.526 15.0809C112.162 13.3053 111.031 12.505 109.174 12.505C106.331 12.505 104.475 14.8803 104.504 17.5427C104.504 20.1196 106.505 22.4384 109.088 22.4384C111.142 22.4384 112.916 21.0074 113.177 19.1753H109.177V17.055H115.732C115.733 21.35 113.529 24.5853 109.088 24.5853Z" fill="#EC7133"/>
<path d="M118.777 24.213V10.7561H126V12.8753H121.098V15.9698H126V18.089H121.098V22.097H126V24.2162L118.777 24.213Z" fill="#EC7133"/>
</svg>
